# Blender v3.2.0 OBJ File: ''
# www.blender.org
mtllib PieceHolder.mtl
o Cube
v 1.000000 0.200000 -1.000000
v 1.000000 -0.200000 -1.000000
v 1.000000 0.200000 1.000000
v 1.000000 -0.200000 1.000000
v -1.000000 0.200000 -1.000000
v -1.000000 -0.200000 -1.000000
v -1.000000 0.200000 1.000000
v -1.000000 -0.200000 1.000000
v -1.000000 -0.200000 0.000000
v 1.000000 0.200000 0.000000
v -1.000000 0.200000 0.000000
v 1.000000 -0.200000 0.000000
v 0.000000 -0.200000 -1.000000
v -0.661696 0.200000 1.000000
v 0.000000 -0.200000 1.000000
v -0.661696 0.200000 -1.000000
v 0.000000 -0.200000 0.000000
v -0.661696 0.200000 0.000000
v -1.000000 -0.200000 0.500000
v 1.000000 0.200000 0.654437
v 1.000000 -0.200000 0.500000
v 0.000000 -0.200000 0.500000
v -0.661696 0.200000 0.654437
v 1.000000 -0.200000 -0.500000
v -1.000000 -0.200000 -0.500000
v 1.000000 0.200000 -0.665321
v -0.661696 0.200000 -0.665321
v 0.000000 -0.200000 -0.500000
v -0.661696 5.835472 1.000000
v -1.000000 5.835472 1.000000
v 1.000000 5.835472 0.654437
v 1.000000 5.835472 1.000000
v -0.661696 5.835472 -1.000000
v 1.000000 5.835472 -1.000000
v -1.000000 5.835472 -1.000000
v -0.661696 5.835472 -0.665321
v -0.661696 5.835472 0.000000
v -0.661696 5.835472 0.654437
v -1.000000 5.835472 0.000000
v 1.000000 5.835472 -0.665321
v 1.000000 0.750675 -0.665321
v 0.690013 0.200000 0.000000
v 0.690013 0.742717 -0.665321
v 0.690013 0.200000 0.654437
v 0.690013 0.200000 -0.665321
v 0.690013 0.768908 0.654437
v 1.000000 0.764118 0.654437
v 0.690013 5.835472 0.654437
v 0.690013 5.835472 -0.665321
v 0.690013 0.768908 0.168024
v 1.000000 0.764118 0.168024
v 0.690013 5.835472 0.168024
v 1.000000 5.835472 0.168024
vt 0.625000 0.125000
vt 0.375000 0.125000
vt 0.375000 0.062500
vt 0.750000 0.625000
vt 0.687500 0.687500
vt 0.687500 0.625000
vt 0.375000 0.687500
vt 0.250000 0.750000
vt 0.250000 0.687500
vt 0.625000 0.625000
vt 0.375000 0.625000
vt 0.375000 0.562500
vt 0.625000 0.875000
vt 0.375000 1.000000
vt 0.375000 0.875000
vt 0.250000 0.625000
vt 0.250000 0.562500
vt 0.625000 0.250000
vt 0.375000 0.250000
vt 0.375000 0.187500
vt 0.750000 0.562500
vt 0.687500 0.562500
vt 0.125000 0.625000
vt 0.125000 0.562500
vt 0.125000 0.750000
vt 0.125000 0.687500
vt 0.625000 0.250000
vt 0.625000 0.500000
vt 0.375000 0.500000
vt 0.375000 0.375000
vt 0.250000 0.500000
vt 0.125000 0.500000
vt 0.625000 0.000000
vt 0.625000 0.125000
vt 0.625000 0.687500
vt 0.375000 0.750000
vt 0.625000 0.500000
vt 0.625000 0.562500
vt 0.625000 0.562500
vt 0.750000 0.500000
vt 0.750000 0.562500
vt 0.687500 0.562500
vt 0.750000 0.625000
vt 0.875000 0.625000
vt 0.687500 0.687500
vt 0.750000 0.750000
vt 0.625000 0.750000
vt 0.625000 0.562500
vt 0.687500 0.562500
vt 0.625000 0.750000
vt 0.625000 0.875000
vt 0.750000 0.687500
vt 0.687500 0.687500
vt 0.625000 1.000000
vt 0.625000 1.000000
vt 0.625000 0.687500
vt 0.625000 0.687500
vt 0.625000 0.375000
vt 0.625000 0.375000
vt 0.750000 0.687500
vt 0.687500 0.687500
vt 0.625000 0.687500
vt 0.687500 0.687500
vt 0.625000 0.687500
vt 0.375000 0.000000
vt 0.625000 0.000000
vt 0.875000 0.500000
vt 0.875000 0.750000
vn -1.0000 0.0000 0.0000
vn 0.0000 1.0000 0.0000
vn 0.0000 -1.0000 0.0000
vn 1.0000 0.0000 0.0000
vn 0.0000 0.0000 1.0000
vn 0.0000 0.0000 -1.0000
vn -0.0154 -0.9998 0.0161
vn -0.0155 -0.9999 0.0000
vn 0.0257 -0.9992 0.0314
usemtl Material
s off
f 11/1/1 9/2/1 19/3/1
f 18/4/2 44/5/2 42/6/2
f 21/7/3 15/8/3 22/9/3
f 10/10/4 12/11/4 24/12/4
f 14/13/5 8/14/5 15/15/5
f 24/12/3 17/16/3 28/17/3
f 5/18/1 6/19/1 25/20/1
f 27/21/2 42/6/2 45/22/2
f 28/17/3 9/23/3 25/24/3
f 22/9/3 8/25/3 19/26/3
f 17/16/3 19/26/3 9/23/3
f 11/1/1 35/27/1 5/18/1
f 1/28/6 2/29/6 13/30/6
f 12/11/3 22/9/3 17/16/3
f 13/31/3 25/24/3 6/32/3
f 7/33/1 39/34/1 11/1/1
f 2/29/3 28/17/3 13/31/3
f 20/35/4 4/36/4 21/7/4
f 34/37/4 40/38/4 41/39/4
f 33/40/2 36/41/2 49/42/2
f 37/43/2 36/41/2 39/44/2
f 48/45/2 29/46/2 32/47/2
f 26/48/5 43/49/5 45/22/5
f 3/50/5 29/51/5 14/13/5
f 38/52/6 48/45/6 46/53/6
f 14/13/5 30/54/5 7/55/5
f 27/21/4 37/43/4 18/4/4
f 47/56/4 31/57/4 32/47/4
f 5/18/6 33/58/6 16/59/6
f 18/4/4 38/52/4 23/60/4
f 44/5/6 47/56/6 20/35/6
f 43/49/5 49/42/5 36/41/5
f 48/45/1 50/61/1 46/53/1
f 50/61/1 49/42/1 43/49/1
f 45/22/2 10/10/2 26/48/2
f 42/6/2 20/35/2 10/10/2
f 16/59/6 34/37/6 1/28/6
f 50/61/7 41/39/7 51/62/7
f 31/57/2 52/63/2 48/45/2
f 46/53/8 51/62/8 47/56/8
f 47/56/4 53/64/4 31/57/4
f 53/64/2 49/42/2 52/63/2
f 51/62/4 40/38/4 53/64/4
f 19/3/1 8/65/1 7/33/1
f 7/33/1 11/1/1 19/3/1
f 18/4/2 23/60/2 44/5/2
f 21/7/3 4/36/3 15/8/3
f 24/12/4 2/29/4 26/48/4
f 2/29/4 1/28/4 26/48/4
f 26/48/4 10/10/4 24/12/4
f 15/15/5 4/36/5 3/50/5
f 14/13/5 7/55/5 8/14/5
f 15/15/5 3/50/5 14/13/5
f 24/12/3 12/11/3 17/16/3
f 25/20/1 9/2/1 11/1/1
f 11/1/1 5/18/1 25/20/1
f 27/21/2 18/4/2 42/6/2
f 28/17/3 17/16/3 9/23/3
f 22/9/3 15/8/3 8/25/3
f 17/16/3 22/9/3 19/26/3
f 11/1/1 39/34/1 35/27/1
f 13/30/6 6/19/6 16/59/6
f 6/19/6 5/18/6 16/59/6
f 16/59/6 1/28/6 13/30/6
f 12/11/3 21/7/3 22/9/3
f 13/31/3 28/17/3 25/24/3
f 7/33/1 30/66/1 39/34/1
f 2/29/3 24/12/3 28/17/3
f 21/7/4 12/11/4 10/10/4
f 20/35/4 3/50/4 4/36/4
f 21/7/4 10/10/4 20/35/4
f 41/39/4 26/48/4 1/28/4
f 1/28/4 34/37/4 41/39/4
f 40/38/2 34/37/2 49/42/2
f 34/37/2 33/40/2 49/42/2
f 36/41/2 33/40/2 35/67/2
f 39/44/2 30/68/2 38/52/2
f 30/68/2 29/46/2 38/52/2
f 36/41/2 35/67/2 39/44/2
f 38/52/2 37/43/2 39/44/2
f 32/47/2 31/57/2 48/45/2
f 48/45/2 38/52/2 29/46/2
f 26/48/5 41/39/5 43/49/5
f 3/50/5 32/47/5 29/51/5
f 46/53/6 44/5/6 23/60/6
f 23/60/6 38/52/6 46/53/6
f 14/13/5 29/51/5 30/54/5
f 27/21/4 36/41/4 37/43/4
f 32/47/4 3/50/4 47/56/4
f 3/50/4 20/35/4 47/56/4
f 5/18/6 35/27/6 33/58/6
f 18/4/4 37/43/4 38/52/4
f 44/5/6 46/53/6 47/56/6
f 36/41/5 27/21/5 43/49/5
f 27/21/5 45/22/5 43/49/5
f 48/45/1 52/63/1 50/61/1
f 50/61/1 52/63/1 49/42/1
f 45/22/2 42/6/2 10/10/2
f 42/6/2 44/5/2 20/35/2
f 16/59/6 33/58/6 34/37/6
f 50/61/9 43/49/9 41/39/9
f 31/57/2 53/64/2 52/63/2
f 46/53/8 50/61/8 51/62/8
f 47/56/4 51/62/4 53/64/4
f 53/64/2 40/38/2 49/42/2
f 51/62/4 41/39/4 40/38/4
